PathFileType	4	(X/Y/Z)	/Users/niels/Desktop/University/Third Semester/Perception and Action/Exam/Gymnastics Motion Tracking/Code for Gym Tracking/Analyzed Data/Webcam_Backflip/id4_3_trajectory_Sports2D/id4_3_trajectory_Sports2D_px_person00.trc
DataRate	CameraRate	NumFrames	NumMarkers	Units	OrigDataRate	OrigDataStartFrame	OrigNumFrames
29.714285714285715	29.714285714285715	7	22	m	29.714285714285715	65	105
Frame#	Time	Hip			RHip			RKnee			RAnkle			RBigToe			RSmallToe			RHeel			LHip			LKnee			LAnkle			LBigToe			LSmallToe			LHeel			Neck			Head			Nose			RShoulder			RElbow			RWrist			LShoulder			LElbow			LWrist		
		X1	Y1	Z1	X2	Y2	Z2	X3	Y3	Z3	X4	Y4	Z4	X5	Y5	Z5	X6	Y6	Z6	X7	Y7	Z7	X8	Y8	Z8	X9	Y9	Z9	X10	Y10	Z10	X11	Y11	Z11	X12	Y12	Z12	X13	Y13	Z13	X14	Y14	Z14	X15	Y15	Z15	X16	Y16	Z16	X17	Y17	Z17	X18	Y18	Z18	X19	Y19	Z19	X20	Y20	Z20	X21	Y21	Z21	X22	Y22	Z22
65	2.1875	0.656758396791684	-0.6859635363484102	0.0	0.6473642170197755	-0.6832676383533588	0.0	0.6628129746219299	-0.8055468416818075	0.0	0.6145728572689595	-0.9174831815848586	0.0	0.6456557577063816	-0.9577095490787925	0.0	0.6350809196417303	-0.9608542658456023	0.0	0.5989903437780574	-0.9289682314468205	0.0	0.6727994876324889	-0.688908993459501	0.0	0.6827992881673758	-0.8026325409533749	0.0	0.6355961884389827	-0.9122615982491196	0.0	0.6669377012856987	-0.9535837032706997	0.0	0.6632875598590519	-0.9274911479391196	0.0	0.61681391285203	-0.9211271658069148	0.0	0.7773974554336983	-0.589220470753543	0.0	0.860584664276604	-0.5891031569872567	0.0	0.8256843433681536	-0.6110841748034019	0.0	0.7573573589805445	-0.5827902282596166	0.0	0.7613399170818212	-0.6412994747228019	0.0	0.8368130515798938	-0.6735298177984748	0.0	0.7748247889254466	-0.5889717147153978	0.0	0.7896578977682052	-0.6268999506063163	0.0	0.8632890467285153	-0.6500617542757247	0.0
66	2.2211538461538463	0.6508937869429191	-0.7108104330895721	0.0	0.6386973416757481	-0.707723874889382	0.0	0.6650441200019768	-0.8252993065627443	0.0	0.6157068046417621	-0.9335893970791572	0.0	0.6453137031284585	-0.9704691141977144	0.0	0.6348870586219367	-0.9774144130705374	0.0	0.6004410815770637	-0.943692043832723	0.0	0.6698695879275952	-0.7140574190105613	0.0	0.6881614375300138	-0.8208172341379575	0.0	0.6362329045837524	-0.9265504509747986	0.0	0.665260339268856	-0.9676521769807858	0.0	0.661815358192035	-0.9404610846566022	0.0	0.6186481522884055	-0.9329816783100148	0.0	0.7693416515755999	-0.6112558663368682	0.0	0.851365059178115	-0.5985544477070606	0.0	0.8174100585232759	-0.6292331354887835	0.0	0.744254937427767	-0.6079367715813141	0.0	0.7605667270722551	-0.6831523090282632	0.0	0.8307742803893685	-0.7208312878336903	0.0	0.7690140298402577	-0.6124070166077427	0.0	0.7976084701886789	-0.6637282292001282	0.0	0.8634651458081963	-0.6913929076289465	0.0
67	2.254807692307692	0.6452452933766943	-0.7215618410883418	0.0	0.6302700207277387	-0.7178415226688807	0.0	0.667756105017586	-0.827791701638348	0.0	0.6165970249023366	-0.9329799560240667	0.0	0.6448539263399766	-0.9655036779295217	0.0	0.6336561916195766	-0.9751376070524472	0.0	0.6016064538910407	-0.9420641090729759	0.0	0.6671189155493886	-0.7252857267912283	0.0	0.695473703788408	-0.8230837678966821	0.0	0.638294082928832	-0.9239458357959596	0.0	0.6644876250173564	-0.9628306388204996	0.0	0.6615109065448649	-0.9388781684809367	0.0	0.6228871083768023	-0.9285288744541897	0.0	0.7641101134873955	-0.6286496655629255	0.0	0.8441126442910879	-0.6097040345407337	0.0	0.8108109961554653	-0.6450984643744293	0.0	0.7350496363948533	-0.6268490994750762	0.0	0.7577222729430663	-0.7137888650544919	0.0	0.8187074562185752	-0.7605576417507526	0.0	0.7654715830869737	-0.6310148283249127	0.0	0.801347947335948	-0.693913726205108	0.0	0.857658416292869	-0.7295292244739313	0.0
68	2.2884615384615383	0.6401651360593107	-0.7190087037519686	0.0	0.6230229985756912	-0.7147857587746682	0.0	0.6711367609371558	-0.8146992530295654	0.0	0.6184667107389527	-0.9176962856459576	0.0	0.6451964581116478	-0.9468474509852591	0.0	0.6327498275119388	-0.9563204305806356	0.0	0.6037426065269238	-0.9263345519744745	0.0	0.6645495630700696	-0.7232530450679858	0.0	0.7039257155431903	-0.8112886329136387	0.0	0.641889482117549	-0.9067942452981397	0.0	0.6647854021120753	-0.9429076260672785	0.0	0.6628745880980144	-0.924631723054062	0.0	0.6293614961310825	-0.9104272414108965	0.0	0.7616062262623849	-0.6403542379224402	0.0	0.8394512881427576	-0.6213751858089043	0.0	0.806195217257964	-0.6576584606508615	0.0	0.72978892923199	-0.6382931109375464	0.0	0.7510741831450605	-0.7317850229237644	0.0	0.8001492896501069	-0.7884685055891343	0.0	0.7637369240028541	-0.6433590176234223	0.0	0.7994535311853431	-0.7153392169584601	0.0	0.8452701904453702	-0.7601756679699978	0.0
69	2.3221153846153846	0.636420219869803	-0.7060794829940064	0.0	0.6180834159614346	-0.7017068352825393	0.0	0.6746208159436237	-0.790786530527037	0.0	0.6214440465839751	-0.8925607725870419	0.0	0.6464632325983797	-0.9208995252725218	0.0	0.6326859701576657	-0.9277037694535303	0.0	0.6070139511950374	-0.9011863698690457	0.0	0.662682768695418	-0.7108000516226611	0.0	0.7122053293364452	-0.7900778012081665	0.0	0.6463752416594499	-0.8803829231747615	0.0	0.6661895463086289	-0.914707437563443	0.0	0.6658040549735393	-0.9021381005397175	0.0	0.636847402575771	-0.883988763692983	0.0	0.76140511663954	-0.6459434340807707	0.0	0.8373867891533742	-0.6317065388652462	0.0	0.803393571544671	-0.6659944259972229	0.0	0.727992076888415	-0.6420774020796894	0.0	0.7404645546878368	-0.7372350308183104	0.0	0.7761022144684336	-0.8025535584388036	0.0	0.7633146451458166	-0.6489972503455131	0.0	0.79249286749795	-0.7266853808936481	0.0	0.8272668969072057	-0.7802243883600507	0.0
70	2.355769230769231	0.6349593762970085	-0.6869034237478375	0.0	0.6163372317257853	-0.6825904303819393	0.0	0.6770780589125814	-0.762693141454396	0.0	0.6245983041823396	-0.8643454462774113	0.0	0.6479411352487494	-0.8943409674974073	0.0	0.6329713765689655	-0.8976752815931467	0.0	0.6105801895137785	-0.8730842225453032	0.0	0.6623963470697077	-0.6921471108378348	0.0	0.7188523625721706	-0.7657795541074455	0.0	0.6507614023925611	-0.8518089095088837	0.0	0.6685477214421365	-0.8858248899271179	0.0	0.6695845900483355	-0.8774975964294983	0.0	0.6435595518816494	-0.8560973401891744	0.0	0.7630632160938519	-0.6455051023912802	0.0	0.8377950530494171	-0.6387814660933177	0.0	0.8022193444999735	-0.6693763385469506	0.0	0.728970843104156	-0.6387724526067461	0.0	0.7271239262026228	-0.7308976767739644	0.0	0.7487510016234067	-0.8022239009229929	0.0	0.7639176544120182	-0.6483679697397398	0.0	0.7822785745642533	-0.7274599113060645	0.0	0.8060308035474997	-0.7880946745460958	0.0
71	2.3894230769230766	0.636579433793642	-0.6656286111140991	0.0	0.6181874940760994	-0.661179125498483	0.0	0.6774459822792458	-0.7368416569802951	0.0	0.6263988868855166	-0.839615588112275	0.0	0.6482759399280225	-0.8726513333907572	0.0	0.6324690353657983	-0.873026552602602	0.0	0.6129804332824101	-0.8484223909509937	0.0	0.6645521624384584	-0.6716712556197391	0.0	0.722643421389477	-0.7444096190840566	0.0	0.6539219962582213	-0.827712574302239	0.0	0.6711648675178344	-0.862564267110958	0.0	0.6730641291261721	-0.8566460890618686	0.0	0.6477660586454693	-0.8331311023604638	0.0	0.7663257053343573	-0.6395550457541238	0.0	0.8406303327262006	-0.6410021720184309	0.0	0.8028048469977908	-0.6673252179653406	0.0	0.7320872110670847	-0.6293968315504098	0.0	0.7130576949546309	-0.7139001752343158	0.0	0.7205009022225254	-0.7877787403398451	0.0	0.7656033850054008	-0.6424473072513683	0.0	0.7712790224015414	-0.7181845974307651	0.0	0.7846064402006684	-0.7837528556163642	0.0
